<svg width="50" height="50" viewBox="0 0 50 50" fill="none" xmlns="http://www.w3.org/2000/svg">
<g id="Frame">
<g id="Group">
<path id="Vector" d="M41.8 4.6C43.792 4.6 45.4 6.208 45.4 8.2V41.8C45.4 43.792 43.792 45.4 41.8 45.4H8.2C6.208 45.4 4.6 43.792 4.6 41.8V8.2C4.6 6.208 6.208 4.6 8.2 4.6H41.8ZM41.8 1H8.2C4.216 1 1 4.216 1 8.2V41.8C1 45.784 4.216 49 8.2 49H41.8C45.784 49 49 45.784 49 41.8V8.2C49 4.216 45.784 1 41.8 1Z" fill="#747985"/>
<path id="Vector_2" d="M24.9996 38.8001C24.0156 38.8001 23.1996 37.9841 23.1996 37.0001V15.4001C23.1996 14.4161 24.0156 13.6001 24.9996 13.6001C25.9836 13.6001 26.7996 14.4161 26.7996 15.4001V37.0001C26.7996 37.9841 25.9836 38.8001 24.9996 38.8001ZM15.3996 38.8001C14.4156 38.8001 13.5996 37.9841 13.5996 37.0001V27.4001C13.5996 26.4161 14.4156 25.6001 15.3996 25.6001C16.3836 25.6001 17.1996 26.4161 17.1996 27.4001V37.0001C17.1996 37.9841 16.3836 38.8001 15.3996 38.8001ZM34.5996 38.8001C33.6156 38.8001 32.7996 37.9841 32.7996 37.0001V22.6001C32.7996 21.6161 33.6156 20.8001 34.5996 20.8001C35.5836 20.8001 36.3996 21.6161 36.3996 22.6001V37.0001C36.3996 37.9841 35.5836 38.8001 34.5996 38.8001Z" fill="#747985"/>
</g>
</g>
</svg>
