<svg width="28" height="34" viewBox="0 0 28 34" fill="none" xmlns="http://www.w3.org/2000/svg">
<path d="M24.5 9.5C24.1022 9.5 23.7206 9.65804 23.4393 9.93934C23.158 10.2206 23 10.6022 23 11V27.7865C22.957 28.545 22.616 29.2558 22.0512 29.7641C21.4865 30.2723 20.7439 30.5368 19.985 30.5H8.015C7.25615 30.5368 6.51348 30.2723 5.94876 29.7641C5.38404 29.2558 5.04303 28.545 5 27.7865V11C5 10.6022 4.84196 10.2206 4.56066 9.93934C4.27936 9.65804 3.89782 9.5 3.5 9.5C3.10218 9.5 2.72064 9.65804 2.43934 9.93934C2.15804 10.2206 2 10.6022 2 11V27.7865C2.04282 29.3408 2.69987 30.8149 3.82727 31.8858C4.95467 32.9566 6.46051 33.5371 8.015 33.5H19.985C21.5395 33.5371 23.0453 32.9566 24.1727 31.8858C25.3001 30.8149 25.9572 29.3408 26 27.7865V11C26 10.6022 25.842 10.2206 25.5607 9.93934C25.2794 9.65804 24.8978 9.5 24.5 9.5ZM26 5H20V2C20 1.60218 19.842 1.22064 19.5607 0.93934C19.2794 0.658035 18.8978 0.5 18.5 0.5H9.5C9.10218 0.5 8.72064 0.658035 8.43934 0.93934C8.15804 1.22064 8 1.60218 8 2V5H2C1.60218 5 1.22064 5.15804 0.93934 5.43934C0.658035 5.72064 0.5 6.10218 0.5 6.5C0.5 6.89783 0.658035 7.27936 0.93934 7.56066C1.22064 7.84197 1.60218 8 2 8H26C26.3978 8 26.7794 7.84197 27.0607 7.56066C27.342 7.27936 27.5 6.89783 27.5 6.5C27.5 6.10218 27.342 5.72064 27.0607 5.43934C26.7794 5.15804 26.3978 5 26 5ZM11 5V3.5H17V5H11Z" fill="#747985"/>
<path d="M12.5 24.5V14C12.5 13.6022 12.342 13.2206 12.0607 12.9393C11.7794 12.658 11.3978 12.5 11 12.5C10.6022 12.5 10.2206 12.658 9.93934 12.9393C9.65804 13.2206 9.5 13.6022 9.5 14V24.5C9.5 24.8978 9.65804 25.2794 9.93934 25.5607C10.2206 25.842 10.6022 26 11 26C11.3978 26 11.7794 25.842 12.0607 25.5607C12.342 25.2794 12.5 24.8978 12.5 24.5ZM18.5 24.5V14C18.5 13.6022 18.342 13.2206 18.0607 12.9393C17.7794 12.658 17.3978 12.5 17 12.5C16.6022 12.5 16.2206 12.658 15.9393 12.9393C15.658 13.2206 15.5 13.6022 15.5 14V24.5C15.5 24.8978 15.658 25.2794 15.9393 25.5607C16.2206 25.842 16.6022 26 17 26C17.3978 26 17.7794 25.842 18.0607 25.5607C18.342 25.2794 18.5 24.8978 18.5 24.5Z" fill="#747985"/>
</svg>
