<svg width="34" height="34" viewBox="0 0 34 34" fill="none" xmlns="http://www.w3.org/2000/svg">
<g id="Frame" clip-path="url(#clip0_719_119)">
<g id="Group">
<g id="Layer 2">
<path id="Vector" d="M17 34C26.3888 34 34 26.3888 34 17C34 7.61116 26.3888 0 17 0C7.61116 0 0 7.61116 0 17C0 26.3888 7.61116 34 17 34Z" fill="#EDEDED"/>
<g id="Group_2">
<path id="Vector_2" d="M22.9204 15.7743L22.9111 15.765L18.2254 11.0761C18.2254 11.0761 12.5145 16.787 9.76264 19.596C9.41998 19.9453 9.16033 20.4314 9.00627 20.9015C8.55471 22.2821 8.18084 23.6906 7.76514 25.0851C7.65357 25.459 7.67615 25.7884 7.969 26.0673C8.24525 26.3329 8.55603 26.3422 8.91463 26.2346C10.2428 25.8362 11.5795 25.457 12.9136 25.0752C13.5996 24.8763 14.2215 24.5011 14.7172 23.9868C17.3389 21.3491 22.9204 15.7743 22.9204 15.7743ZM25.6556 9.9485L24.0533 8.34611C23.6423 7.93553 23.0852 7.7049 22.5043 7.7049C21.9234 7.7049 21.3663 7.93553 20.9554 8.34611L19.1392 10.1603L23.8401 14.8626L25.6563 13.0463C26.0668 12.6353 26.2973 12.0782 26.2972 11.4973C26.2971 10.9164 26.0663 10.3593 25.6556 9.9485Z" fill="#747985"/>
</g>
</g>
</g>
</g>
<defs>
<clipPath id="clip0_719_119">
<rect width="34" height="34" fill="white"/>
</clipPath>
</defs>
</svg>
