<svg width="22" height="22" viewBox="0 0 22 22" fill="none" xmlns="http://www.w3.org/2000/svg">
<g id="Frame">
<g id="Group">
<path id="Vector" d="M17.5527 4.08222H16.4785V1.5035C16.4785 1.02238 16.2458 0.566822 15.8559 0.284904C15.466 0.0029862 14.9605 -0.0754317 14.5035 0.0753026L3.97616 3.54743C3.67542 3.64622 3.4136 3.83754 3.22811 4.09405C3.04263 4.35055 2.94296 4.65913 2.94336 4.97567V20.4961C2.94336 21.3253 3.61801 22 4.44727 22H17.5527C18.382 22 19.0566 21.3253 19.0566 20.4961V5.58613C19.0566 4.75692 18.382 4.08222 17.5527 4.08222ZM17.7676 20.4961C17.7676 20.6145 17.6712 20.7109 17.5527 20.7109H4.44727C4.3288 20.7109 4.23242 20.6145 4.23242 20.4961V5.58613C4.23242 5.46767 4.3288 5.37129 4.44727 5.37129H17.5527C17.6712 5.37129 17.7676 5.46767 17.7676 5.58613V20.4961ZM14.9073 1.29948C14.9981 1.26958 15.0673 1.30541 15.1006 1.32943C15.1338 1.35345 15.1895 1.40798 15.1895 1.5035V4.08227H6.47015L14.9073 1.29948Z" fill="#747985"/>
<path id="Vector_2" d="M6.70312 12.8257H15.2969C15.6528 12.8257 15.9414 12.5371 15.9414 12.1812C15.9414 11.8252 15.6528 11.5366 15.2969 11.5366H15.1102C14.8323 9.75782 13.4234 8.34884 11.6445 8.071V7.74805C11.6445 7.39209 11.356 7.10352 11 7.10352C10.644 7.10352 10.3555 7.39209 10.3555 7.74805V8.071C8.57665 8.34884 7.16766 9.75782 6.88982 11.5366H6.70312C6.34717 11.5366 6.05859 11.8252 6.05859 12.1812C6.05859 12.5371 6.34717 12.8257 6.70312 12.8257ZM11 9.31009C12.3616 9.31009 13.5048 10.2629 13.7982 11.5366H8.20183C8.49518 10.2629 9.63845 9.31009 11 9.31009ZM6.95307 14.567C6.59712 14.567 6.30854 14.8556 6.30854 15.2115C6.30854 15.5675 6.59712 15.856 6.95307 15.856H10.0468C10.4028 15.856 10.6914 15.5675 10.6914 15.2115C10.6914 14.8556 10.4028 14.567 10.0468 14.567H6.95307ZM15.1357 17.1451H6.86426C6.5083 17.1451 6.21973 17.4337 6.21973 17.7896C6.21973 18.1456 6.5083 18.4342 6.86426 18.4342H15.1357C15.4917 18.4342 15.7803 18.1456 15.7803 17.7896C15.7803 17.4337 15.4917 17.1451 15.1357 17.1451Z" fill="#747985"/>
</g>
</g>
</svg>
