<svg width="38" height="50" viewBox="0 0 38 50" fill="none" xmlns="http://www.w3.org/2000/svg">
<path d="M34.0215 9.27778H31.5801V3.41704C31.5801 2.32358 31.0511 1.28823 30.165 0.64751C29.279 0.00678683 28.13 -0.171436 27.0915 0.171142L3.16563 8.06235C2.48213 8.28687 1.88709 8.72168 1.46553 9.30465C1.04397 9.88762 0.817456 10.5889 0.818362 11.3083V46.582C0.818362 48.4667 2.35166 50 4.23633 50H34.0215C35.9062 50 37.4395 48.4667 37.4395 46.582V12.6958C37.4395 10.8112 35.9062 9.27778 34.0215 9.27778ZM34.5098 46.582C34.5098 46.8512 34.2907 47.0703 34.0215 47.0703H4.23633C3.96709 47.0703 3.74805 46.8512 3.74805 46.582V12.6958C3.74805 12.4265 3.96709 12.2075 4.23633 12.2075H34.0215C34.2907 12.2075 34.5098 12.4265 34.5098 12.6958V46.582ZM28.0092 2.95337C28.2154 2.8854 28.3728 2.96685 28.4483 3.02144C28.5238 3.07603 28.6505 3.19995 28.6505 3.41704V9.27788H8.83379L28.0092 2.95337Z" fill="#747985"/>
<path d="M9.36328 29.1485H28.8945C29.7035 29.1485 30.3594 28.4927 30.3594 27.6837C30.3594 26.8747 29.7035 26.2188 28.8945 26.2188H28.4702C27.8388 22.1761 24.6365 18.9738 20.5938 18.3424V17.6084C20.5938 16.7994 19.9379 16.1436 19.1289 16.1436C18.3199 16.1436 17.6641 16.7994 17.6641 17.6084V18.3424C13.6213 18.9738 10.419 22.1761 9.7876 26.2188H9.36328C8.5543 26.2188 7.89844 26.8747 7.89844 27.6837C7.89844 28.4927 8.5543 29.1485 9.36328 29.1485ZM19.1289 21.1585C22.2234 21.1585 24.8217 23.3239 25.4884 26.2188H12.7694C13.4361 23.3239 16.0345 21.1585 19.1289 21.1585ZM9.93135 33.106C9.12236 33.106 8.4665 33.7618 8.4665 34.5708C8.4665 35.3798 9.12236 36.0356 9.93135 36.0356H16.9626C17.7716 36.0356 18.4274 35.3798 18.4274 34.5708C18.4274 33.7618 17.7716 33.106 16.9626 33.106H9.93135ZM28.5283 38.9653H9.72949C8.92051 38.9653 8.26465 39.6212 8.26465 40.4302C8.26465 41.2392 8.92051 41.895 9.72949 41.895H28.5283C29.3373 41.895 29.9932 41.2392 29.9932 40.4302C29.9932 39.6212 29.3373 38.9653 28.5283 38.9653Z" fill="#747985"/>
</svg>
