<svg width="20" height="20" viewBox="0 0 20 20" fill="none" xmlns="http://www.w3.org/2000/svg">
<path d="M18.2143 8.21429H12.1429C12.0481 8.21429 11.9573 8.17666 11.8903 8.10968C11.8233 8.0427 11.7857 7.95186 11.7857 7.85714V1.78571C11.7857 0.799554 10.9862 0 10 0C9.01384 0 8.21429 0.799554 8.21429 1.78571V7.85714C8.21429 7.95186 8.17666 8.0427 8.10968 8.10968C8.0427 8.17666 7.95186 8.21429 7.85714 8.21429H1.78571C0.799554 8.21429 0 9.01384 0 10C0 10.9862 0.799554 11.7857 1.78571 11.7857H7.85714C7.95186 11.7857 8.0427 11.8233 8.10968 11.8903C8.17666 11.9573 8.21429 12.0481 8.21429 12.1429V18.2143C8.21429 19.2004 9.01384 20 10 20C10.9862 20 11.7857 19.2004 11.7857 18.2143V12.1429C11.7857 12.0481 11.8233 11.9573 11.8903 11.8903C11.9573 11.8233 12.0481 11.7857 12.1429 11.7857H18.2143C19.2004 11.7857 20 10.9862 20 10C20 9.01384 19.2004 8.21429 18.2143 8.21429Z" fill="#747985"/>
</svg>
