<svg width="20" height="20" viewBox="0 0 20 20" fill="none" xmlns="http://www.w3.org/2000/svg">
<path d="M13.7676 8.59375C13.7676 8.16227 13.4178 7.8125 12.9863 7.8125H4.93945C4.50797 7.8125 4.1582 8.16227 4.1582 8.59375C4.1582 9.02523 4.50797 9.375 4.93945 9.375H12.9863C13.4178 9.375 13.7676 9.02523 13.7676 8.59375ZM4.93945 10.9375C4.50797 10.9375 4.1582 11.2873 4.1582 11.7188C4.1582 12.1502 4.50797 12.5 4.93945 12.5H9.8266C10.2581 12.5 10.6079 12.1502 10.6079 11.7188C10.6079 11.2873 10.2581 10.9375 9.8266 10.9375H4.93945Z" fill="#747985"/>
<path d="M6.77496 18.4375H4.16211C3.30055 18.4375 2.59961 17.7366 2.59961 16.875V3.125C2.59961 2.26344 3.30055 1.5625 4.16211 1.5625H13.7671C14.6287 1.5625 15.3296 2.26344 15.3296 3.125V7.92969C15.3296 8.36117 15.6794 8.71094 16.1109 8.71094C16.5424 8.71094 16.8921 8.36117 16.8921 7.92969V3.125C16.8921 1.40188 15.4903 0 13.7671 0H4.16211C2.43898 0 1.03711 1.40188 1.03711 3.125V16.875C1.03711 18.5981 2.43898 20 4.16211 20H6.77496C7.20645 20 7.55621 19.6502 7.55621 19.2188C7.55621 18.7873 7.20645 18.4375 6.77496 18.4375Z" fill="#747985"/>
<path d="M18.2764 11.3114C17.3625 10.3976 15.8757 10.3975 14.9624 11.3108L10.6732 15.5905C10.5822 15.6814 10.5149 15.7933 10.4775 15.9164L9.54344 18.9916C9.50278 19.1255 9.49881 19.2678 9.53193 19.4037C9.56506 19.5396 9.63408 19.6642 9.73177 19.7643C9.82946 19.8644 9.95224 19.9365 10.0873 19.9729C10.2223 20.0094 10.3647 20.009 10.4995 19.9716L13.6529 19.0981C13.7826 19.0622 13.9009 18.9933 13.9962 18.8982L18.2764 14.626C19.1902 13.7122 19.1902 12.2253 18.2764 11.3114ZM13.0378 17.6472L11.4514 18.0866L11.9156 16.5582L14.8097 13.6705L15.9148 14.7755L13.0378 17.6472ZM17.1721 13.5207L17.0207 13.6718L15.9159 12.5669L16.0667 12.4163C16.3713 12.1117 16.867 12.1117 17.1716 12.4163C17.4762 12.7209 17.4762 13.2166 17.1721 13.5207ZM12.9863 4.6875H4.93945C4.50797 4.6875 4.1582 5.03727 4.1582 5.46875C4.1582 5.90023 4.50797 6.25 4.93945 6.25H12.9863C13.4178 6.25 13.7676 5.90023 13.7676 5.46875C13.7676 5.03727 13.4178 4.6875 12.9863 4.6875Z" fill="#747985"/>
</svg>
