<svg width="21" height="21" viewBox="0 0 21 21" fill="none" xmlns="http://www.w3.org/2000/svg">
<g clip-path="url(#clip0_586_827)">
<path d="M10.5 0C4.71056 0 0 4.71056 0 10.5C0 16.2894 4.71056 21 10.5 21C16.2894 21 21 16.2894 21 10.5C21 4.71056 16.2894 0 10.5 0ZM10.5 19.6875C5.43375 19.6875 1.3125 15.5662 1.3125 10.5C1.3125 5.43375 5.43375 1.3125 10.5 1.3125C15.5662 1.3125 19.6875 5.43375 19.6875 10.5C19.6875 15.5662 15.5662 19.6875 10.5 19.6875Z" fill="#747985"/>
<path d="M12.7549 13.9348C12.2666 14.2682 11.7285 14.4375 11.1562 14.4375C9.94744 14.4375 8.90006 13.6395 8.33175 12.4688H10.5C10.8622 12.4688 11.1562 12.1747 11.1562 11.8125C11.1562 11.4503 10.8622 11.1562 10.5 11.1562H7.93012C7.89994 10.9423 7.875 10.7244 7.875 10.5C7.875 10.2756 7.89994 10.0577 7.93012 9.84375H11.1562C11.5185 9.84375 11.8125 9.54975 11.8125 9.1875C11.8125 8.82525 11.5185 8.53125 11.1562 8.53125H8.33175C8.90006 7.3605 9.94744 6.5625 11.1562 6.5625C11.7285 6.5625 12.2666 6.73181 12.7549 7.06519C13.0541 7.26862 13.4636 7.19381 13.6671 6.89325C13.8718 6.594 13.7944 6.18581 13.4951 5.98106C12.7942 5.50331 11.9858 5.25 11.1562 5.25C9.23344 5.25 7.58756 6.61106 6.90375 8.53125H5.90625C5.544 8.53125 5.25 8.82525 5.25 9.1875C5.25 9.54975 5.544 9.84375 5.90625 9.84375H6.62025C6.59663 10.0616 6.5625 10.2756 6.5625 10.5C6.5625 10.7244 6.59663 10.9384 6.62025 11.1562H5.90625C5.544 11.1562 5.25 11.4503 5.25 11.8125C5.25 12.1747 5.544 12.4688 5.90625 12.4688H6.90375C7.58756 14.3889 9.23344 15.75 11.1562 15.75C11.9858 15.75 12.7942 15.4967 13.4951 15.0189C13.7944 14.8142 13.8718 14.406 13.6671 14.1068C13.4636 13.8075 13.0541 13.7314 12.7549 13.9348Z" fill="#747985"/>
</g>
<defs>
<clipPath id="clip0_586_827">
<rect width="21" height="21" fill="white"/>
</clipPath>
</defs>
</svg>
