<svg width="50" height="50" viewBox="0 0 50 50" fill="none" xmlns="http://www.w3.org/2000/svg">
<g id="Frame" clip-path="url(#clip0_586_949)">
<g id="Group">
<path id="Vector" d="M42.6777 7.32227C37.9559 2.60059 31.6776 0 25 0C18.3224 0 12.0441 2.60049 7.32227 7.32227C2.60059 12.0441 0 18.3224 0 25C0 31.6776 2.60049 37.9559 7.32227 42.6777C12.0441 47.3994 18.3224 50 25 50C31.6776 50 37.9559 47.3995 42.6777 42.6777C47.3994 37.9559 50 31.6776 50 25C50 18.3224 47.3995 12.0441 42.6777 7.32227ZM10.8501 41.9235C11.6757 34.8205 17.7826 29.3366 25 29.3366C28.8047 29.3366 32.3826 30.8189 35.0738 33.5099C37.3474 35.7838 38.7813 38.7527 39.1502 41.9231C35.3165 45.134 30.3803 47.0703 25 47.0703C19.6197 47.0703 14.6839 45.1344 10.8501 41.9235ZM25 26.319C20.8134 26.319 17.4068 22.9126 17.4068 18.726C17.4068 14.539 20.8135 11.1328 25 11.1328C29.1865 11.1328 32.5932 14.539 32.5932 18.726C32.5932 22.9126 29.1866 26.3191 25 26.3191V26.319ZM41.6718 39.4467C40.919 36.4154 39.3541 33.6467 37.1452 31.4385C35.3447 29.6379 33.2146 28.2871 30.8914 27.4406C33.6842 25.5467 35.5229 22.3469 35.5229 18.726C35.5229 12.9238 30.8021 8.20312 25 8.20312C19.1979 8.20312 14.4771 12.9238 14.4771 18.726C14.4771 22.3488 16.3174 25.5497 19.1124 27.4434C16.975 28.2223 14.9972 29.4266 13.2954 31.0119C10.8311 33.3068 9.11982 36.2331 8.32637 39.4443C4.96602 35.5705 2.92969 30.5187 2.92969 25C2.92969 12.8304 12.8304 2.92969 25 2.92969C37.1696 2.92969 47.0703 12.8304 47.0703 25C47.0703 30.5198 45.0332 35.5728 41.6718 39.4467Z" fill="#747985"/>
</g>
</g>
<defs>
<clipPath id="clip0_586_949">
<rect width="50" height="50" fill="white"/>
</clipPath>
</defs>
</svg>
