<svg width="36" height="36" viewBox="0 0 36 36" fill="none" xmlns="http://www.w3.org/2000/svg">
<g id="Frame">
<g id="Group">
<path id="Vector" d="M16.407 2.89727C12.8303 2.90327 9.40178 4.32676 6.87267 6.85588C4.34355 9.38499 2.92006 12.8135 2.91406 16.3902C2.91705 19.9699 4.33886 23.4025 6.86798 25.9358C9.39709 28.4692 12.8273 29.8968 16.407 29.9058C19.5818 29.9058 22.5071 28.7889 24.8202 26.9407L30.4385 32.559C30.7231 32.8236 31.0992 32.9677 31.4878 32.9609C31.8764 32.9541 32.2472 32.7969 32.5224 32.5225C32.7976 32.2481 32.9557 31.8776 32.9635 31.4891C32.9714 31.1005 32.8283 30.724 32.5645 30.4387L26.9462 24.8147C28.865 22.4283 29.9111 19.458 29.9112 16.3959C29.9112 8.95774 23.8451 2.89727 16.407 2.89727ZM16.407 5.902C22.2237 5.902 26.9065 10.5792 26.9065 16.3902C26.9065 22.2012 22.2237 26.9067 16.407 26.9067C10.5903 26.9067 5.91312 22.2182 5.91312 16.4015C5.91312 10.5848 10.5903 5.902 16.407 5.902Z" fill="#B9B9B9"/>
</g>
</g>
</svg>
