<svg width="30" height="30" viewBox="0 0 30 30" fill="none" xmlns="http://www.w3.org/2000/svg">
<g id="Frame" clip-path="url(#clip0_586_923)">
<g id="Group">
<path id="Vector" d="M26.3138 11.25H26.1938C26.0179 11.2484 25.8465 11.194 25.702 11.0936C25.5576 10.9933 25.4466 10.8518 25.3838 10.6875C25.3175 10.5289 25.3 10.3541 25.3334 10.1855C25.3668 10.0169 25.4496 9.86204 25.5712 9.74063L25.6566 9.65531C26.1708 9.13907 26.4596 8.44009 26.4596 7.71141C26.4596 6.98273 26.1708 6.28374 25.6566 5.7675L24.24 4.35188C23.7242 3.83721 23.0252 3.54817 22.2966 3.54817C21.5679 3.54817 20.869 3.83721 20.3531 4.35188L20.2678 4.43719C20.1421 4.55823 19.9838 4.63995 19.8124 4.67232C19.6409 4.70469 19.4637 4.68629 19.3025 4.6194C19.1414 4.5525 19.0032 4.44001 18.9051 4.29573C18.8069 4.15145 18.753 3.98166 18.75 3.80719V3.68625C18.7493 2.95746 18.4594 2.25874 17.9441 1.74341C17.4288 1.22808 16.73 0.938245 16.0013 0.9375H13.9987C13.27 0.938245 12.5712 1.22808 12.0559 1.74341C11.5406 2.25874 11.2507 2.95746 11.25 3.68625V3.80719C11.2454 3.98041 11.1907 4.14859 11.0926 4.29137C10.9944 4.43416 10.8569 4.54542 10.6968 4.61168C10.5367 4.67795 10.3608 4.69638 10.1904 4.66474C10.0201 4.63311 9.86252 4.55276 9.73687 4.43344L9.65625 4.34812C9.14041 3.83346 8.44149 3.54442 7.71281 3.54442C6.98414 3.54442 6.28521 3.83346 5.76937 4.34812L4.34812 5.76375C3.83386 6.27999 3.54511 6.97898 3.54511 7.70766C3.54511 8.43634 3.83386 9.13532 4.34812 9.65156L4.43344 9.73687C4.5563 9.86258 4.63853 10.0223 4.66946 10.1953C4.70039 10.3684 4.67858 10.5467 4.60687 10.7072C4.54254 10.867 4.432 11.0041 4.28938 11.1008C4.14677 11.1974 3.97855 11.2494 3.80625 11.25H3.68625C2.95746 11.2507 2.25874 11.5406 1.74341 12.0559C1.22808 12.5712 0.938245 13.27 0.9375 13.9987V16.0013C0.938245 16.73 1.22808 17.4288 1.74341 17.9441C2.25874 18.4594 2.95746 18.7493 3.68625 18.75H3.80625C3.98214 18.7516 4.15349 18.806 4.29797 18.9064C4.44244 19.0067 4.55335 19.1482 4.61625 19.3125C4.68247 19.4711 4.7 19.6459 4.66661 19.8145C4.63322 19.9831 4.55042 20.138 4.42875 20.2594L4.34344 20.3447C3.82917 20.8609 3.54042 21.5599 3.54042 22.2886C3.54042 23.0173 3.82917 23.7163 4.34344 24.2325L5.75906 25.6472C6.27482 26.1624 6.97399 26.4517 7.70297 26.4517C8.43195 26.4517 9.13112 26.1624 9.64688 25.6472L9.73219 25.5619C9.85796 25.4391 10.0177 25.357 10.1907 25.326C10.3637 25.2951 10.542 25.3169 10.7025 25.3884C10.8623 25.4525 10.9994 25.5628 11.0961 25.7053C11.1928 25.8478 11.2448 26.0159 11.2453 26.1881V26.3091C11.2451 26.6707 11.3161 27.0289 11.4544 27.363C11.5927 27.6972 11.7955 28.0009 12.0512 28.2566C12.307 28.5123 12.6106 28.7151 12.9448 28.8534C13.2789 28.9917 13.6371 29.0627 13.9987 29.0625H16.0013C16.73 29.0618 17.4288 28.7719 17.9441 28.2566C18.4594 27.7413 18.7493 27.0425 18.75 26.3138V26.1928C18.7546 26.0196 18.8093 25.8514 18.9074 25.7086C19.0056 25.5658 19.1431 25.4546 19.3032 25.3883C19.4633 25.3221 19.6392 25.3036 19.8096 25.3353C19.9799 25.3669 20.1375 25.4472 20.2631 25.5666L20.3484 25.6519C20.8643 26.1665 21.5632 26.4556 22.2919 26.4556C23.0206 26.4556 23.7195 26.1665 24.2353 25.6519L25.6519 24.2372C26.1661 23.7209 26.4549 23.022 26.4549 22.2933C26.4549 21.5646 26.1661 20.8656 25.6519 20.3494L25.5666 20.2641C25.4437 20.1384 25.3615 19.9786 25.3305 19.8056C25.2996 19.6326 25.3214 19.4542 25.3931 19.2938C25.4573 19.1337 25.5678 18.9965 25.7104 18.8996C25.853 18.8028 26.0213 18.7507 26.1938 18.75H26.3138C27.0425 18.7493 27.7413 18.4594 28.2566 17.9441C28.7719 17.4288 29.0618 16.73 29.0625 16.0013V13.9987C29.0618 13.27 28.7719 12.5712 28.2566 12.0559C27.7413 11.5406 27.0425 11.2507 26.3138 11.25ZM27.1875 16.0013C27.1873 16.2329 27.0951 16.455 26.9313 16.6188C26.7675 16.7826 26.5454 16.8748 26.3138 16.875H26.1938C25.6497 16.8796 25.1191 17.0443 24.668 17.3485C24.2169 17.6526 23.8653 18.0829 23.6571 18.5855C23.4489 19.0881 23.3932 19.6409 23.497 20.175C23.6008 20.7091 23.8596 21.2007 24.2409 21.5887L24.3253 21.6741C24.489 21.8382 24.5809 22.0605 24.5809 22.2923C24.5809 22.5241 24.489 22.7465 24.3253 22.9106L22.9088 24.3253C22.7449 24.4892 22.5227 24.5812 22.2909 24.5812C22.0592 24.5812 21.837 24.4892 21.6731 24.3253L21.5887 24.24C21.2006 23.8591 20.7089 23.6007 20.175 23.4972C19.6411 23.3936 19.0885 23.4493 18.5861 23.6575C18.0836 23.8657 17.6535 24.217 17.3492 24.6678C17.045 25.1186 16.8801 25.649 16.875 26.1928V26.3138C16.8748 26.5454 16.7826 26.7675 16.6188 26.9313C16.455 27.0951 16.2329 27.1873 16.0013 27.1875H13.9987C13.7671 27.1873 13.545 27.0951 13.3812 26.9313C13.2174 26.7675 13.1252 26.5454 13.125 26.3138V26.1928C13.1224 25.6479 12.9589 25.1158 12.655 24.6635C12.3511 24.2111 11.9204 23.8586 11.4169 23.6501C10.9134 23.4416 10.3596 23.3865 9.82484 23.4916C9.29012 23.5967 8.79836 23.8574 8.41125 24.2409L8.32594 24.3263C8.16184 24.4896 7.9397 24.5814 7.70813 24.5814C7.47655 24.5814 7.25441 24.4896 7.09031 24.3263L5.67469 22.9116C5.51101 22.7474 5.4191 22.5251 5.4191 22.2933C5.4191 22.0615 5.51101 21.8391 5.67469 21.675L5.76 21.5897C6.14174 21.2017 6.40076 20.7098 6.50474 20.1755C6.60871 19.6412 6.55303 19.0881 6.34465 18.5853C6.13627 18.0824 5.78441 17.652 5.33298 17.3479C4.88156 17.0437 4.35056 16.8793 3.80625 16.875H3.68625C3.45459 16.8748 3.2325 16.7826 3.06869 16.6188C2.90488 16.455 2.81275 16.2329 2.8125 16.0013V13.9987C2.81275 13.7671 2.90488 13.545 3.06869 13.3812C3.2325 13.2174 3.45459 13.1252 3.68625 13.125H3.80625C4.35029 13.1204 4.88093 12.9557 5.33202 12.6515C5.7831 12.3474 6.13468 11.9171 6.34291 11.4145C6.55114 10.9119 6.60681 10.3591 6.50299 9.82501C6.39917 9.29095 6.14044 8.79926 5.75906 8.41125L5.67469 8.32594C5.51107 8.16196 5.41918 7.93977 5.41918 7.70813C5.41918 7.47648 5.51107 7.25429 5.67469 7.09031L7.09031 5.67375C7.25417 5.5099 7.4764 5.41786 7.70813 5.41786C7.93985 5.41786 8.16208 5.5099 8.32594 5.67375L8.41031 5.75906C8.79839 6.14026 9.29004 6.39885 9.82402 6.50264C10.358 6.60642 10.9107 6.55081 11.4133 6.34274C11.9159 6.13466 12.3462 5.78331 12.6506 5.33244C12.9549 4.88158 13.1199 4.35114 13.125 3.80719V3.68625C13.1252 3.45459 13.2174 3.2325 13.3812 3.06869C13.545 2.90488 13.7671 2.81275 13.9987 2.8125H16.0013C16.2329 2.81275 16.455 2.90488 16.6188 3.06869C16.7826 3.2325 16.8748 3.45459 16.875 3.68625V3.80719C16.8798 4.35115 17.0446 4.88166 17.3489 5.33261C17.6531 5.78355 18.0833 6.13498 18.5859 6.3431C19.0885 6.55121 19.6412 6.60681 20.1752 6.50295C20.7092 6.3991 21.2008 6.14039 21.5887 5.75906L21.6741 5.67375C21.8379 5.5099 22.0602 5.41786 22.2919 5.41786C22.5236 5.41786 22.7458 5.5099 22.9097 5.67375L24.3253 7.09031C24.4889 7.25429 24.5808 7.47648 24.5808 7.70813C24.5808 7.93977 24.4889 8.16196 24.3253 8.32594L24.24 8.41125C23.8586 8.79932 23.5998 9.29109 23.496 9.82523C23.3922 10.3594 23.448 10.9123 23.6563 11.4149C23.8647 11.9176 24.2164 12.3478 24.6676 12.6519C25.1189 12.956 25.6496 13.1206 26.1938 13.125H26.3138C26.5454 13.1252 26.7675 13.2174 26.9313 13.3812C27.0951 13.545 27.1873 13.7671 27.1875 13.9987V16.0013Z" fill="#747985"/>
<path id="Vector_2" d="M15 8.4375C13.7021 8.4375 12.4333 8.82238 11.3541 9.54348C10.2749 10.2646 9.43374 11.2895 8.93704 12.4886C8.44034 13.6878 8.31038 15.0073 8.5636 16.2803C8.81682 17.5533 9.44183 18.7226 10.3596 19.6404C11.2774 20.5582 12.4467 21.1832 13.7197 21.4364C14.9927 21.6896 16.3122 21.5597 17.5114 21.063C18.7105 20.5663 19.7354 19.7251 20.4565 18.6459C21.1776 17.5667 21.5625 16.2979 21.5625 15C21.5605 13.2601 20.8685 11.5921 19.6382 10.3618C18.4079 9.13153 16.7399 8.43949 15 8.4375ZM15 19.6875C14.0729 19.6875 13.1666 19.4126 12.3958 18.8975C11.6249 18.3824 11.0241 17.6504 10.6693 16.7938C10.3145 15.9373 10.2217 14.9948 10.4026 14.0855C10.5834 13.1762 11.0299 12.341 11.6854 11.6854C12.341 11.0299 13.1762 10.5834 14.0855 10.4026C14.9948 10.2217 15.9373 10.3145 16.7938 10.6693C17.6504 11.0241 18.3824 11.6249 18.8975 12.3958C19.4126 13.1666 19.6875 14.0729 19.6875 15C19.686 16.2427 19.1917 17.4342 18.3129 18.3129C17.4342 19.1917 16.2427 19.686 15 19.6875Z" fill="#747985"/>
</g>
</g>
<defs>
<clipPath id="clip0_586_923">
<rect width="30" height="30" fill="white"/>
</clipPath>
</defs>
</svg>
